<svg width="165" height="66" viewBox="0 0 165 66" fill="none" xmlns="http://www.w3.org/2000/svg">
<path d="M1.44141 37V12.3906H4.5V33.9766H14.6602V37H1.44141ZM16.6289 31.7969V23.1133C16.6289 22.0117 17.1211 20.9336 18.1055 19.8789C19.3242 18.6133 20.8477 17.9805 22.6758 17.9805V20.8281C21.293 20.8281 20.332 21.4023 19.793 22.5508C19.6289 22.9023 19.5469 23.2539 19.5469 23.6055V31.3398C19.5469 32.207 19.9453 32.9453 20.7422 33.5547C21.3047 33.9766 21.9492 34.1875 22.6758 34.1875V37.0352C20.4492 37.0352 18.7266 36.1328 17.5078 34.3281C16.9219 33.4375 16.6289 32.5938 16.6289 31.7969ZM24.1875 37.0352V34.1875C25.4297 34.1875 26.3203 33.625 26.8594 32.5C27.0469 32.125 27.1406 31.7617 27.1406 31.4102V23.6055C27.1406 22.6445 26.7305 21.8828 25.9102 21.3203C25.3945 20.9922 24.8086 20.8281 24.1523 20.8281V17.9805C26.3086 17.9805 27.9727 18.8594 29.1445 20.6172C29.7305 21.4844 30.0234 22.3164 30.0234 23.1133V31.7969C30.0234 32.9453 29.5312 34.0586 28.5469 35.1367C27.3984 36.3789 25.9453 37.0117 24.1875 37.0352ZM32.168 22.4102V19.5273H34.4883V17.4883C34.4883 16.1758 34.9219 14.9805 35.7891 13.9023C36.75 12.7773 37.9922 12.2031 39.5156 12.1797H40.8164L40.1484 15.0273H39.4805C38.1445 15.0977 37.4648 15.918 37.4414 17.4883V19.5625L39.832 19.5273V22.4102H37.4414V37H34.4883V22.4102H32.168ZM41.8008 21.0391V18.1914H44.1211V12.1094H47.1094V18.1914H49.3594V21.0742H47.1094V31.1641C47.1094 32.8281 47.7891 33.7539 49.1484 33.9414C49.4062 33.9883 49.6641 34.0117 49.9219 34.0117H50.4141L51.082 37H49.8164C46.9336 36.9766 45.1641 35.8984 44.5078 33.7656C44.2734 32.9688 44.1562 31.9844 44.1562 30.8125L44.1211 21.0391H41.8008ZM52.6641 37V12.3906H55.7227V23.1133H58.8867V26.1016H55.7227V37H52.6641ZM60.6445 26.1016V23.1133H63.7734V12.3906H66.8672V37H63.7734V26.1016H60.6445ZM69.6094 31.7969V23.1133C69.6094 22.0117 70.1016 20.9336 71.0859 19.8789C72.3047 18.6133 73.8281 17.9805 75.6562 17.9805V20.8281C74.2734 20.8281 73.3125 21.4023 72.7734 22.5508C72.6094 22.9023 72.5273 23.2539 72.5273 23.6055V31.3398C72.5273 32.207 72.9258 32.9453 73.7227 33.5547C74.2852 33.9766 74.9297 34.1875 75.6562 34.1875V37.0352C73.4297 37.0352 71.707 36.1328 70.4883 34.3281C69.9023 33.4375 69.6094 32.5938 69.6094 31.7969ZM77.168 37.0352V34.1875C78.4102 34.1875 79.3008 33.625 79.8398 32.5C80.0273 32.125 80.1211 31.7617 80.1211 31.4102V23.6055C80.1211 22.6445 79.7109 21.8828 78.8906 21.3203C78.375 20.9922 77.7891 20.8281 77.1328 20.8281V17.9805C79.2891 17.9805 80.9531 18.8594 82.125 20.6172C82.7109 21.4844 83.0039 22.3164 83.0039 23.1133V31.7969C83.0039 32.9453 82.5117 34.0586 81.5273 35.1367C80.3789 36.3789 78.9258 37.0117 77.168 37.0352ZM85.6758 31.9375V18.0156H88.6641V31.5859C88.6641 32.4297 89.0859 33.1328 89.9297 33.6953C90.4922 34.0469 91.1133 34.2227 91.793 34.2227V37.1758C89.543 37.1758 87.8086 36.2969 86.5898 34.5391C85.9805 33.6484 85.6758 32.7812 85.6758 31.9375ZM93.3398 37.1758V34.2227C94.6055 34.2227 95.5312 33.7188 96.1172 32.7109C96.3281 32.3359 96.4336 31.9609 96.4336 31.5859V18.0156H99.4219V31.9375C99.4219 33.0391 98.918 34.1289 97.9102 35.207C96.6914 36.4961 95.168 37.1523 93.3398 37.1758ZM101.461 32.0078L104.238 31.4805C104.238 32.5352 104.789 33.3672 105.891 33.9766C106.43 34.2344 106.945 34.375 107.438 34.3984V37.1758C105.164 37.1758 103.465 36.3555 102.34 34.7148C101.754 33.8477 101.461 32.9453 101.461 32.0078ZM101.637 23.3594C101.637 21.2266 102.609 19.6445 104.555 18.6133C105.492 18.1211 106.43 17.875 107.367 17.875V20.6172C106.289 20.6172 105.457 21.0625 104.871 21.9531C104.566 22.3984 104.414 22.8672 104.414 23.3594C104.414 24.1094 105 24.7188 106.172 25.1875C107.062 25.5625 108.785 26.0547 111.34 26.6641C112.934 26.9922 114.07 27.7773 114.75 29.0195C115.102 29.6758 115.277 30.4141 115.277 31.2344C115.277 33.4844 114.375 35.1484 112.57 36.2266C111.516 36.8594 110.309 37.1758 108.949 37.1758V34.3984C110.027 34.3984 110.93 34.0234 111.656 33.2734C112.172 32.7344 112.43 32.1016 112.43 31.375C112.43 30.4375 111.504 29.6875 109.652 29.125C109.184 28.9844 108.434 28.7852 107.402 28.5273C106.301 28.2695 105.504 28.0586 105.012 27.8945C103.23 27.1914 102.152 26.125 101.777 24.6953C101.684 24.2734 101.637 23.8281 101.637 23.3594ZM108.914 20.6523V17.875C110.93 17.875 112.559 18.625 113.801 20.125C114.574 21.0859 114.961 22.0938 114.961 23.1484L112.184 23.6055C112.184 22.3164 111.48 21.4141 110.074 20.8984C109.652 20.7344 109.266 20.6523 108.914 20.6523ZM117.352 31.7969V23.0781C117.375 22 117.891 20.9336 118.898 19.8789C120.117 18.6367 121.594 18.0039 123.328 17.9805V20.7578C122.203 20.7578 121.324 21.25 120.691 22.2344C120.434 22.6562 120.305 23.043 120.305 23.3945V25.7852H128.18V23.3945C128.18 22.3398 127.641 21.5664 126.562 21.0742C126.07 20.8398 125.566 20.7227 125.051 20.7227V17.9805C126.668 17.9805 128.109 18.5547 129.375 19.7031C130.43 20.7109 130.969 21.8242 130.992 23.043V28.6328H120.305V31.7969C120.305 32.4531 120.68 33.0625 121.43 33.625C122.039 34.0469 122.684 34.2578 123.363 34.2578V37C121.23 37 119.555 36.1328 118.336 34.3984C117.68 33.4844 117.352 32.6172 117.352 31.7969ZM125.051 37V34.2227C126.457 34.2227 127.512 33.6133 128.215 32.3945C128.355 32.1367 128.461 31.8906 128.531 31.6562L131.027 32.5703C130.605 34.1875 129.645 35.4062 128.145 36.2266C127.184 36.7422 126.152 37 125.051 37Z" fill="white"/>
<path d="M0.312 63L3.624 58.608L0.516 54.48H1.5L4.332 58.272H5.496V54.48H6.324V58.272H7.476L10.32 54.48H11.304L8.184 58.608L11.496 63H10.524L7.5 59.04H6.324V63H5.496V59.04H4.308L1.284 63H0.312ZM14.3802 63V54.48H15.2082V61.848L20.4882 54.48H21.2682V63H20.4402V55.764L15.2202 63H14.3802ZM30.9374 55.224H27.9014V63H27.0614V55.224H24.0254V54.48H30.9374V55.224ZM39.4136 63V55.224H35.9336L35.8856 57.024C35.8456 58.2 35.7616 59.176 35.6336 59.952C35.5056 60.728 35.3256 61.34 35.0936 61.788C34.8616 62.228 34.5776 62.544 34.2416 62.736C33.9056 62.92 33.5056 63.012 33.0416 63.012V62.268C33.3536 62.268 33.6296 62.188 33.8696 62.028C34.1096 61.868 34.3136 61.588 34.4816 61.188C34.6496 60.788 34.7816 60.236 34.8776 59.532C34.9816 58.82 35.0496 57.92 35.0816 56.832L35.1536 54.48H40.2416V63H39.4136ZM47.2444 63.06C46.6444 63.06 46.1004 62.94 45.6124 62.7C45.1244 62.46 44.7044 62.136 44.3524 61.728C44.0004 61.312 43.7284 60.848 43.5364 60.336C43.3444 59.816 43.2484 59.284 43.2484 58.74C43.2484 58.172 43.3484 57.632 43.5484 57.12C43.7484 56.6 44.0284 56.14 44.3884 55.74C44.7564 55.332 45.1844 55.012 45.6724 54.78C46.1604 54.54 46.6884 54.42 47.2564 54.42C47.8564 54.42 48.4004 54.544 48.8884 54.792C49.3764 55.04 49.7924 55.372 50.1364 55.788C50.4884 56.204 50.7604 56.668 50.9524 57.18C51.1444 57.692 51.2404 58.216 51.2404 58.752C51.2404 59.32 51.1404 59.864 50.9404 60.384C50.7404 60.896 50.4604 61.356 50.1004 61.764C49.7404 62.164 49.3164 62.48 48.8284 62.712C48.3404 62.944 47.8124 63.06 47.2444 63.06ZM44.0884 58.74C44.0884 59.204 44.1644 59.652 44.3164 60.084C44.4684 60.508 44.6844 60.888 44.9644 61.224C45.2444 61.552 45.5764 61.816 45.9604 62.016C46.3524 62.208 46.7804 62.304 47.2444 62.304C47.7324 62.304 48.1684 62.204 48.5524 62.004C48.9444 61.796 49.2764 61.524 49.5484 61.188C49.8284 60.844 50.0404 60.46 50.1844 60.036C50.3284 59.612 50.4004 59.18 50.4004 58.74C50.4004 58.276 50.3244 57.832 50.1724 57.408C50.0204 56.984 49.8004 56.604 49.5124 56.268C49.2324 55.932 48.9004 55.668 48.5164 55.476C48.1324 55.284 47.7084 55.188 47.2444 55.188C46.7644 55.188 46.3284 55.288 45.9364 55.488C45.5524 55.688 45.2204 55.96 44.9404 56.304C44.6684 56.64 44.4564 57.02 44.3044 57.444C44.1604 57.868 44.0884 58.3 44.0884 58.74ZM60.6721 60.804C60.6721 61.228 60.5641 61.608 60.3481 61.944C60.1321 62.272 59.8401 62.532 59.4721 62.724C59.1121 62.908 58.7161 63 58.2841 63H54.2641V54.48H58.3681C58.7681 54.48 59.1121 54.588 59.4001 54.804C59.6961 55.012 59.9201 55.284 60.0721 55.62C60.2321 55.948 60.3121 56.292 60.3121 56.652C60.3121 57.076 60.2041 57.468 59.9881 57.828C59.7721 58.188 59.4721 58.456 59.0881 58.632C59.5761 58.776 59.9601 59.044 60.2401 59.436C60.5281 59.828 60.6721 60.284 60.6721 60.804ZM59.8321 60.66C59.8321 60.372 59.7681 60.108 59.6401 59.868C59.5121 59.62 59.3361 59.42 59.1121 59.268C58.8961 59.116 58.6481 59.04 58.3681 59.04H55.1041V62.268H58.2841C58.5721 62.268 58.8321 62.192 59.0641 62.04C59.2961 61.888 59.4801 61.692 59.6161 61.452C59.7601 61.204 59.8321 60.94 59.8321 60.66ZM55.1041 55.212V58.356H58.0321C58.3121 58.356 58.5601 58.284 58.7761 58.14C58.9921 57.988 59.1641 57.792 59.2921 57.552C59.4201 57.312 59.4841 57.056 59.4841 56.784C59.4841 56.496 59.4241 56.236 59.3041 56.004C59.1841 55.764 59.0201 55.572 58.8121 55.428C58.6041 55.284 58.3681 55.212 58.1041 55.212H55.1041ZM63.7443 63V54.48H64.5723V61.848L69.8523 54.48H70.6323V63H69.8043V55.764L64.5843 63H63.7443ZM74.3015 63V54.48H75.1295V61.848L80.4095 54.48H81.1895V63H80.3615V55.764L75.1415 63H74.3015ZM77.7575 53.76C77.3655 53.76 77.0335 53.704 76.7615 53.592C76.4975 53.472 76.2975 53.312 76.1615 53.112C76.0255 52.904 75.9535 52.68 75.9455 52.44H76.6055C76.6135 52.648 76.6975 52.836 76.8575 53.004C77.0255 53.172 77.3255 53.256 77.7575 53.256C78.1735 53.256 78.4655 53.18 78.6335 53.028C78.8015 52.868 78.8895 52.672 78.8975 52.44H79.5575C79.5495 52.68 79.4775 52.904 79.3415 53.112C79.2055 53.312 79.0055 53.472 78.7415 53.592C78.4855 53.704 78.1575 53.76 77.7575 53.76ZM89.3092 63V54.48H90.1492V58.272H91.4332L94.3612 54.48H95.3332L92.1292 58.608L95.5372 63H94.5052L91.4572 59.04H90.1492V63H89.3092ZM101.318 63.06C100.718 63.06 100.174 62.94 99.686 62.7C99.198 62.46 98.778 62.136 98.426 61.728C98.074 61.312 97.802 60.848 97.61 60.336C97.418 59.816 97.322 59.284 97.322 58.74C97.322 58.172 97.422 57.632 97.622 57.12C97.822 56.6 98.102 56.14 98.462 55.74C98.83 55.332 99.258 55.012 99.746 54.78C100.234 54.54 100.762 54.42 101.33 54.42C101.93 54.42 102.474 54.544 102.962 54.792C103.45 55.04 103.866 55.372 104.21 55.788C104.562 56.204 104.834 56.668 105.026 57.18C105.218 57.692 105.314 58.216 105.314 58.752C105.314 59.32 105.214 59.864 105.014 60.384C104.814 60.896 104.534 61.356 104.174 61.764C103.814 62.164 103.39 62.48 102.902 62.712C102.414 62.944 101.886 63.06 101.318 63.06ZM98.162 58.74C98.162 59.204 98.238 59.652 98.39 60.084C98.542 60.508 98.758 60.888 99.038 61.224C99.318 61.552 99.65 61.816 100.034 62.016C100.426 62.208 100.854 62.304 101.318 62.304C101.806 62.304 102.242 62.204 102.626 62.004C103.018 61.796 103.35 61.524 103.622 61.188C103.902 60.844 104.114 60.46 104.258 60.036C104.402 59.612 104.474 59.18 104.474 58.74C104.474 58.276 104.398 57.832 104.246 57.408C104.094 56.984 103.874 56.604 103.586 56.268C103.306 55.932 102.974 55.668 102.59 55.476C102.206 55.284 101.782 55.188 101.318 55.188C100.838 55.188 100.402 55.288 100.01 55.488C99.626 55.688 99.294 55.96 99.014 56.304C98.742 56.64 98.53 57.02 98.378 57.444C98.234 57.868 98.162 58.3 98.162 58.74ZM115.886 63V56.064L112.802 61.452H112.274L109.178 56.064V63H108.338V54.48H109.202L112.526 60.312L115.874 54.48H116.726V63H115.886ZM120.301 63V54.48H126.733V63H125.893V55.224H121.141V63H120.301ZM136.068 63V55.224H132.588L132.54 57.024C132.5 58.2 132.416 59.176 132.288 59.952C132.16 60.728 131.98 61.34 131.748 61.788C131.516 62.228 131.232 62.544 130.896 62.736C130.56 62.92 130.16 63.012 129.696 63.012V62.268C130.008 62.268 130.284 62.188 130.524 62.028C130.764 61.868 130.968 61.588 131.136 61.188C131.304 60.788 131.436 60.236 131.532 59.532C131.636 58.82 131.704 57.92 131.736 56.832L131.808 54.48H136.896V63H136.068ZM146.19 62.256V63H140.466V54.48H146.082V55.224H141.306V58.296H145.47V59.004H141.306V62.256H146.19ZM149.219 63V54.48H150.059V58.272H151.343L154.271 54.48H155.243L152.039 58.608L155.447 63H154.415L151.367 59.04H150.059V63H149.219ZM157.232 58.68C157.232 58.16 157.32 57.652 157.496 57.156C157.68 56.652 157.944 56.196 158.288 55.788C158.632 55.372 159.056 55.044 159.56 54.804C160.064 54.556 160.636 54.432 161.276 54.432C162.036 54.432 162.684 54.608 163.22 54.96C163.764 55.304 164.164 55.748 164.42 56.292L163.76 56.7C163.576 56.324 163.344 56.028 163.064 55.812C162.784 55.588 162.484 55.428 162.164 55.332C161.852 55.236 161.54 55.188 161.228 55.188C160.716 55.188 160.264 55.292 159.872 55.5C159.48 55.7 159.148 55.972 158.876 56.316C158.612 56.652 158.412 57.032 158.276 57.456C158.14 57.872 158.072 58.296 158.072 58.728C158.072 59.2 158.152 59.652 158.312 60.084C158.472 60.516 158.696 60.9 158.984 61.236C159.272 61.564 159.608 61.828 159.992 62.028C160.384 62.22 160.808 62.316 161.264 62.316C161.584 62.316 161.912 62.26 162.248 62.148C162.584 62.036 162.896 61.864 163.184 61.632C163.48 61.4 163.716 61.1 163.892 60.732L164.588 61.092C164.412 61.516 164.14 61.876 163.772 62.172C163.404 62.468 162.992 62.692 162.536 62.844C162.088 62.996 161.648 63.072 161.216 63.072C160.632 63.072 160.096 62.948 159.608 62.7C159.12 62.444 158.696 62.108 158.336 61.692C157.984 61.268 157.712 60.796 157.52 60.276C157.328 59.748 157.232 59.216 157.232 58.68Z" fill="white"/>
</svg>
